<?xml version="1.0" encoding="UTF-8"?>
<svg
		version="1.1"
		viewBox="0 0 983.89679 800"
		xml:space="preserve"
		xmlns="http://www.w3.org/2000/svg"
		xmlns:svg="http://www.w3.org/2000/svg">
<style type="text/css">
    .st0{fill:#5D3A9B;}
    .st1{fill:#D4AF37;}
</style>
	<g transform="translate(-20.0516,-112)">
    <g>
       <path
			   class="st1"
			   d="M 1003.9484,875.3054 V 912 H 744.1759 l -0.9098,-35.7847 25.6558,-1.759 c 13.1009,-0.9097 22.9264,-13.0402 20.5004,-25.959 -0.8491,-4.4276 -2.5473,-9.2797 -5.6407,-14.6171 C 769.6498,809.3767 590.787,563.73614 590.787,563.73614 l -78.78698,-0.48521 -78.78695,0.48521 c 0,0 -178.80211,245.64056 -192.99469,270.14406 -3.09325,5.3374 -4.7915,10.1895 -5.64063,14.6171 -2.42608,12.9188 7.33888,24.9887 20.50037,25.959 l 25.6558,1.759 L 279.82414,912 H 20.0516 v -36.6946 c 3.39651,0 18.86278,-2.0621 30.56862,-3.6997 8.67323,-1.213 16.49734,-5.9439 21.65276,-13.1008 L 333.50117,494.10764 c 0,0 -208.33965,-295.61788 -232.47914,-330.37148 -8.91585,-12.85823 -15.0417,-11.28127 -15.0417,-11.28127 l -52.7066,-0.90978 V 112 h 265.41319 v 42.3351 h -23.47233 c -8.97649,0 -17.83169,3.21455 -24.1395,9.58302 -1.81956,1.7589 -2.79,4.6702 -3.33586,7.88475 -1.45564,8.61259 0.90978,17.46779 5.88324,24.62473 32.20622,46.33812 169.34041,245.94388 169.34041,245.94388 H 601.2191 c 0,0 137.1343,-199.66641 169.3404,-245.94388 4.9735,-7.15694 7.3389,-16.01214 5.8832,-24.62473 -0.4852,-3.21455 -1.5162,-6.12585 -3.3358,-7.88475 -6.3079,-6.30781 -15.163,-9.58302 -24.1395,-9.58302 H 725.4951 V 112 h 265.4131 v 39.54511 l -52.7066,0.90978 c 0,0 -6.1258,-1.5163 -15.0417,11.28127 -24.2001,34.81426 -232.4791,330.37148 -232.4791,330.37148 L 951.909,858.5049 c 5.1554,7.1569 12.9188,11.8878 21.6528,13.1008 11.5239,1.6376 26.9901,3.6997 30.3866,3.6997 z" />
    </g>
</g>
</svg>