<svg
		version="1.1"
		viewBox="0 0 800 130"
		xmlns="http://www.w3.org/2000/svg"
		preserveAspectRatio="xMidYMid meet">
	<g style="fill:#d4af37">
		<path d="M 65.095703,0 C 54.533532,0 45.17636,1.8476339 37.035156,5.5410156 28.893952,9.2343973 22.081886,14.18757 16.609375,20.425781 11.136864,26.652733 6.9917756,33.759206 4.1992187,41.708984 1.3954016,49.658763 0,57.967316 0,66.615234 c 0,9.41362 1.7218555,17.971776 5.15625,25.673828 3.4456549,7.702053 8.086045,14.311488 13.941406,19.851568 5.855361,5.54007 12.599885,9.80898 20.234375,12.79296 7.63449,2.98399 15.652543,4.48047 24.052735,4.48047 10.56217,0 19.919342,-1.84522 28.060546,-5.52734 8.141205,-3.68212 14.953268,-8.64851 20.425778,-14.88672 5.47251,-6.23821 9.60439,-13.365472 12.40821,-21.382813 2.79255,-8.01734 4.20117,-16.294304 4.20117,-24.818359 0,-9.413619 -1.72381,-17.971776 -5.1582,-25.673828 -3.44566,-7.690792 -8.0841,-14.31149 -13.93946,-19.851563 C 103.52745,11.733365 96.782928,7.4776643 89.148437,4.4824219 81.513947,1.4984397 73.495894,0 65.095703,0 Z m -3.041016,7.9941406 c 8.017341,0 15.022729,1.6562658 21.001954,4.9667974 5.979224,3.310531 10.977657,7.914967 14.986328,13.83789 4.008671,5.922923 7.026341,12.76899 9.064451,20.527344 2.02686,7.758353 3.05274,16.035317 3.05274,24.818359 0,9.920333 -1.62227,18.613576 -4.86524,26.056641 -3.24297,7.443068 -8.117575,13.242468 -14.603514,17.374998 -6.485938,4.13254 -14.639077,6.20313 -24.435547,6.20313 -8.01734,0 -15.020775,-1.68832 -21,-5.06641 -5.979224,-3.36683 -10.979611,-8.05007 -14.988281,-14.0293 C 26.258908,96.704369 23.263523,89.834067 21.292969,82.064453 19.311154,74.3061 18.332031,65.963546 18.332031,57.056641 c 0,-9.920333 1.654313,-18.546033 4.964844,-25.865235 3.310531,-7.307941 8.221093,-13.005799 14.707031,-17.082031 6.485939,-4.076232 14.502039,-6.1152344 24.050781,-6.1152344 z" />
		<path d="m 180.40234,1.1152344 c -1.79039,0 -3.82939,0.089825 -6.11523,0.28125 -2.2971,0.1914252 -4.74112,0.3827935 -7.35352,0.5742187 -2.61239,0.1914253 -5.18954,0.28125 -7.73437,0.28125 -2.55609,0 -4.58383,-0.022282 -6.11524,-0.089844 -1.52014,-0.056302 -3.1424,-0.089844 -4.86523,-0.089844 h -7.73438 c -1.65526,0 -2.99633,0.1573676 -4.00976,0.4726563 -1.02469,0.3152887 -1.53125,0.8553926 -1.53125,1.6210937 0,0.8895645 0.50656,1.656532 1.53125,2.2871094 1.02469,0.6418377 2.61341,1.1483995 4.77539,1.53125 4.83067,0.9008248 7.98343,2.8703315 9.44727,5.9218755 1.46384,3.051543 2.19531,7.442329 2.19531,13.173828 v 80.568362 c 0,4.71807 -1.11421,8.08493 -3.34375,10.12304 -2.22954,2.03812 -5.76503,3.50302 -10.59571,4.39258 -4.20009,0.7657 -6.30664,1.90219 -6.30664,3.4336 0,0.7657 0.50657,1.3058 1.53125,1.62109 1.01343,0.31529 2.35255,0.47266 4.00782,0.47266 3.43439,0 6.39623,-0.12429 8.88476,-0.39453 2.47727,-0.24773 4.96609,-0.47264 7.44336,-0.66407 2.47727,-0.19142 5.30357,-0.28125 8.49024,-0.28125 2.4097,0 4.35842,0.0898 5.82226,0.28125 1.46384,0.19143 3.11815,0.40508 4.96485,0.66407 1.84669,0.25898 4.49334,0.38281 7.92773,0.38281 1.65527,0 2.98508,-0.15737 4.00977,-0.47266 1.02468,-0.31529 1.53125,-0.85539 1.53125,-1.62109 0,-0.88957 -0.51783,-1.59876 -1.53125,-2.10547 -1.02469,-0.50672 -2.61342,-0.95699 -4.7754,-1.33984 -4.71806,-0.88957 -8.01738,-2.7372 -9.93164,-5.54102 -1.90299,-2.79256 -2.85937,-6.48541 -2.85937,-11.06836 v -91.0625 c 0,-2.927681 1.14775,-4.987012 3.43359,-6.2031255 2.29711,-1.2048532 5.21369,-1.8125 8.78321,-1.8125 9.28975,0 16.93483,2.4533276 22.91406,7.3515635 5.97922,4.898234 8.97461,12.443725 8.97461,22.623046 0,11.204009 -1.93551,19.98558 -5.82031,26.347656 -3.88481,6.373335 -9.63895,9.548828 -17.27344,9.548828 -2.54483,0 -4.48229,-0.06754 -5.82227,-0.191406 -1.33997,-0.123863 -2.33036,-0.191406 -2.96094,-0.191406 -0.64183,0 -1.30576,0.326453 -2.0039,0.957031 -0.69814,0.641838 -1.04883,1.217895 -1.04883,1.724609 0,0.765701 0.73343,1.564717 2.19727,2.386719 1.46384,0.822002 3.59071,1.238281 6.39453,1.238281 9.80773,0 17.85978,-1.98272 24.15429,-5.923828 6.29452,-3.941108 10.97776,-9.198453 14.0293,-15.751953 3.05155,-6.5535 4.58399,-13.704996 4.58399,-21.474609 0,-10.686034 -4.42629,-19.028588 -13.26563,-25.007812 -8.8506,-5.9792254 -20.51476,-8.9746101 -35.0293,-8.9746096 z" />
		<path d="m 330.53516,2.0605469 c -3.69339,0 -5.54102,0.8212969 -5.54102,2.4765625 0,0.9008248 0.50852,1.6007079 1.5332,2.1074218 1.02469,0.5179743 2.61146,0.9569933 4.77344,1.3398438 4.84193,0.8895645 8.15251,2.476334 9.93164,4.773438 1.77913,2.297103 2.66797,5.157402 2.66797,8.591796 v 37.226563 c 0,1.531402 -0.45028,2.296875 -1.33984,2.296875 h -70.82618 c -0.51797,0 -1.09207,-0.08982 -1.72265,-0.28125 -0.64184,-0.191425 -0.95703,-0.663987 -0.95703,-1.429688 V 21.552734 c 0,-3.682121 0.99038,-6.643505 2.96093,-8.873046 1.97056,-2.218282 5.31468,-3.7842641 10.02149,-4.6738286 2.16198,-0.3828506 3.74875,-0.8331298 4.77344,-1.3398438 1.02469,-0.5067139 1.53125,-1.2159042 1.53125,-2.1054687 0,-1.6440053 -1.84568,-2.4765625 -5.53907,-2.4765625 -3.44565,0 -6.14858,0.067543 -8.11914,0.1914062 -1.98181,0.1238634 -3.81623,0.2136882 -5.53906,0.28125 -1.72283,0.056302 -3.9192,0.089844 -6.58789,0.089844 -2.55609,0 -4.65137,-0.022282 -6.30664,-0.089844 -1.65527,-0.056302 -3.4334,-0.1573866 -5.34766,-0.28125 -1.91425,-0.1238634 -4.58318,-0.1914062 -8.01757,-0.1914062 -1.903,0 -3.30966,0.2249104 -4.19922,0.6640625 -0.90083,0.4504124 -1.33985,1.0467989 -1.33985,1.8125 0,1.5201418 2.09288,2.6678926 6.29297,3.4335937 4.83067,0.9008248 7.72452,2.2646374 8.68164,4.1113284 0.95713,1.846691 1.43164,4.988183 1.43164,9.447265 v 86.287106 c 0,4.58295 -0.73342,7.89353 -2.19726,9.93164 -1.46384,2.03812 -4.6166,3.50302 -9.44727,4.39258 -4.06497,0.7657 -6.10351,1.77837 -6.10351,3.05078 0,0.7657 0.50851,1.37335 1.5332,1.8125 1.01343,0.43916 2.35255,0.66407 4.00781,0.66407 3.4344,0 6.20487,-0.0888 8.31055,-0.30274 2.10568,-0.19142 4.07518,-0.35074 5.92187,-0.47461 1.84669,-0.12386 4.11061,-0.1914 6.7793,-0.1914 2.92768,0 5.40524,0.0675 7.44336,0.1914 2.03812,0.12387 4.16694,0.28319 6.39648,0.47461 2.21829,0.19143 5.05584,0.28125 8.49024,0.28125 1.65526,0 2.98312,-0.22491 4.00781,-0.66406 1.02469,-0.43915 1.53125,-1.04875 1.53125,-1.81445 0,-0.88957 -0.48382,-1.53122 -1.42969,-1.91407 -0.94586,-0.38285 -2.51184,-0.76558 -4.67382,-1.14843 -4.32396,-0.7657 -7.94928,-2.57739 -10.87696,-5.4375 -2.92768,-2.86012 -4.39062,-6.27374 -4.39062,-10.21485 V 70.208984 c 0,-1.407538 0.31519,-2.107422 0.95703,-2.107422 h 72.92187 c 0.64184,0 0.95703,0.326454 0.95703,0.957032 v 1.916015 37.226561 c 0,4.07623 -1.1837,7.21773 -3.5371,9.44727 -2.35341,2.22954 -5.56244,3.71477 -9.63868,4.48047 -2.16198,0.38285 -3.71474,0.76558 -4.67187,1.14843 -0.95713,0.38285 -1.43164,1.0245 -1.43164,1.91407 0,0.7657 0.50851,1.3753 1.5332,1.81445 1.01343,0.43915 2.35255,0.66406 4.00781,0.66406 3.4344,0 6.17087,-0.0898 8.20899,-0.28125 2.03811,-0.19142 3.90608,-0.35074 5.6289,-0.47461 1.72283,-0.12386 3.9192,-0.1914 6.58789,-0.1914 2.6687,0 4.83107,0.0675 6.48633,0.1914 1.65527,0.12387 3.43341,0.28319 5.34766,0.47461 1.91425,0.19143 4.58318,0.28125 8.01758,0.28125 1.65526,0 2.98507,-0.22491 4.00976,-0.66406 1.02469,-0.43915 1.53125,-1.04875 1.53125,-1.81445 0,-1.27242 -2.039,-2.28508 -6.11523,-3.05078 -4.70681,-0.88957 -7.66819,-2.35251 -8.87305,-4.39063 -1.20485,-2.03812 -1.8125,-5.41624 -1.8125,-10.12305 V 21.337891 c 0,-3.693382 0.50656,-6.621224 1.53125,-8.783203 1.01343,-2.16198 3.88499,-3.6924673 8.5918,-4.5820318 4.18883,-0.765701 6.29492,-1.9041447 6.29492,-3.4355468 0,-0.7657011 -0.47256,-1.3620876 -1.42969,-1.8125 -0.95712,-0.4391521 -2.3322,-0.6640625 -4.11133,-0.6640625 -3.43439,0 -5.9795,0.067543 -7.63476,0.1914062 -1.65527,0.1238634 -3.11821,0.2136882 -4.39063,0.28125 -1.27241,0.056302 -3.05055,0.089844 -5.34765,0.089844 -2.79256,0 -5.21384,-0.022282 -7.25196,-0.089844 -2.03811,-0.056302 -4.16694,-0.1573866 -6.39648,-0.28125 -2.21828,-0.1238634 -5.05584,-0.1914062 -8.49023,-0.1914062 z" />
		<path d="m 394.12305,2.0839844 c -1.65527,0 -2.99634,0.1573675 -4.00977,0.4726562 -1.02469,0.3152887 -1.53125,0.8553927 -1.53125,1.6210938 0,0.8895645 0.50656,1.6545789 1.53125,2.2851562 1.02469,0.6418377 2.61341,1.1483995 4.77539,1.53125 4.83067,0.8895645 8.1748,2.2869194 10.02149,4.2011724 1.84669,1.914252 2.76953,5.157288 2.76953,9.740234 v 85.904293 c 0,4.58295 -1.14775,7.89353 -3.4336,9.93164 -2.28584,2.03812 -5.85682,3.50302 -10.6875,4.39258 -4.20009,0.7657 -6.29492,1.90219 -6.29492,3.4336 0,0.7657 0.50852,1.3058 1.5332,1.62109 1.01343,0.31529 2.35255,0.47266 4.00782,0.47266 3.43439,0 6.23783,-0.0889 8.43359,-0.25782 2.16198,-0.19142 4.25681,-0.38279 6.29492,-0.57421 2.02686,-0.19143 4.44814,-0.28321 7.25196,-0.28321 4.83067,0 9.51391,0.0695 14.02929,0.19336 4.51539,0.12386 9.13304,0.25895 13.83985,0.38281 4.70681,0.12387 9.66193,0.25895 14.88672,0.38282 5.21352,0.12386 10.88714,0.1914 16.99023,0.1914 0.7657,0 1.30776,-0.32645 1.62305,-0.95703 0.31529,-0.64184 0.66402,-1.40926 1.04687,-2.29883 0.7657,-1.77913 1.621,-4.19845 2.57813,-7.25 0.95712,-3.05154 1.74488,-6.01293 2.38672,-8.87304 0.64183,-2.86012 0.95703,-4.86512 0.95703,-6.01368 0,-0.7657 -0.19137,-1.36208 -0.57422,-1.8125 -0.38285,-0.43915 -0.90067,-0.733554 -1.53125,-0.857418 -0.64184,-0.123863 -1.21594,0.06946 -1.72266,0.576168 -0.51797,0.51798 -0.95699,1.14837 -1.33984,1.91407 -2.03812,3.81724 -3.85175,6.88017 -5.43946,9.16601 -1.5877,2.29711 -3.39938,4.14279 -5.4375,5.53907 -2.03811,1.27241 -4.42585,2.13897 -7.1621,2.57812 -2.73626,0.43915 -6.13666,0.66406 -10.2129,0.66406 h -14.13085 c -4.33522,0 -7.51072,-0.92284 -9.54883,-2.76953 -2.03812,-1.84669 -3.05274,-5.17955 -3.05274,-10.02148 V 70.658203 c 0,-2.17324 0.54011,-3.535099 1.6211,-4.109375 1.08099,-0.574276 2.70325,-0.855469 4.86523,-0.855469 h 17.73438 c 2.54483,0 4.46,0.709191 5.73242,2.105469 1.27241,1.396279 2.28508,3.558648 3.05078,6.486328 1.01343,4.064972 2.47832,6.101563 4.39258,6.101563 0.7657,0 1.23826,-0.315194 1.42968,-0.957032 0.19143,-0.630577 0.28125,-1.395591 0.28125,-2.285156 0,-0.506714 -0.0223,-1.710747 -0.0898,-3.625 -0.0676,-1.902992 -0.12384,-3.907994 -0.19141,-6.013672 -0.0563,-2.094417 -0.0898,-3.784225 -0.0898,-5.05664 0,-1.013428 0.0675,-2.476373 0.19141,-4.390625 0.12386,-1.914253 0.21369,-3.761887 0.28125,-5.541016 0.0563,-1.779129 0.0898,-2.92688 0.0898,-3.433594 0,-1.024688 -0.28119,-1.790161 -0.85547,-2.296875 -0.57427,-0.506714 -1.11438,-0.765625 -1.62109,-0.765625 -1.52014,0 -2.66985,1.406662 -3.43555,4.199219 -0.88956,3.569518 -2.03731,6.013539 -3.43359,7.353516 -1.39628,1.339977 -3.94139,2.003906 -7.63477,2.003906 h -18.90625 c -0.88956,0 -1.68858,-0.405018 -2.38672,-1.238281 -0.69814,-0.833263 -1.04687,-1.812386 -1.04687,-2.960938 V 14.908203 c 0,-1.779129 0.88884,-3.242073 2.66797,-4.390625 1.77913,-1.1485515 3.17453,-1.7226561 4.19922,-1.7226561 h 25.00976 c 2.40971,0 4.70716,0.3487358 6.86914,1.046875 2.17324,0.6981391 4.14275,2.0595401 5.92188,4.0976561 0.88956,0.889565 1.65699,2.320461 2.29883,4.291016 0.64183,1.970554 1.27222,4.043098 1.91406,6.205078 0.25899,0.630577 0.50664,1.114399 0.76562,1.429687 0.25899,0.315289 0.69801,0.472657 1.33985,0.472657 0.63057,0 1.23822,-0.191369 1.8125,-0.574219 0.57427,-0.37159 0.85547,-1.136605 0.85547,-2.285156 0,-2.54483 -0.32646,-5.562497 -0.95704,-9.064453 C 475.00465,10.912106 474.363,7.3859245 473.73242,3.8164063 473.5973,3.1745686 473.15828,2.7355496 472.39258,2.4765625 471.63814,2.2175754 470.92941,2.09375 470.29883,2.09375 c -0.50672,0 -2.25281,0.022282 -5.24805,0.089844 -2.99524,0.056302 -6.65456,0.1593397 -10.97851,0.2832031 -3.94111,0 -8.24357,0.022282 -12.88282,0.089844 -4.63924,0.056302 -9.06357,0.089844 -13.26367,0.089844 -4.45908,0 -8.30976,-0.022282 -11.55273,-0.089844 -3.25423,-0.056302 -6.56481,-0.1573866 -9.93164,-0.28125 -3.3781,-0.1238634 -7.48769,-0.1914062 -12.31836,-0.1914067 z" />
		<path d="m 496.91797,2.09375 c -1.65527,0 -2.99634,0.1573676 -4.00977,0.4726563 -1.02469,0.3152886 -1.53125,0.8573457 -1.53125,1.6230468 0,1.779129 2.09483,3.0507052 6.29492,3.8164063 3.17541,0.5067139 5.59669,1.1143608 7.25196,1.8125 1.65526,0.6981396 2.79175,1.7803006 3.43359,3.2441406 0.64184,1.46384 0.95703,3.7258 0.95703,6.777344 v 88.585936 c 0,4.2001 -1.33912,7.28531 -4.00781,9.25586 -2.66869,1.97055 -6.48537,3.46899 -11.45117,4.48242 -0.38285,0.12387 -1.18382,0.41632 -2.38867,0.85547 -1.21612,0.45041 -1.8125,1.23817 -1.8125,2.38672 0,0.64184 0.47256,1.18194 1.42968,1.62109 0.95713,0.43916 2.2534,0.66544 3.91993,0.69922 5.97922,-0.38285 10.97765,-0.64176 14.98632,-0.76562 4.00867,-0.12387 7.60045,-0.19141 10.78711,-0.19141 4.83068,0 9.72952,0.0675 14.69532,0.19141 4.96579,0.12386 10.14629,0.21369 15.5625,0.28125 5.40495,0.0563 11.03526,0.15738 16.89062,0.28125 5.85536,0.12386 11.968,0.1914 18.33008,0.1914 1.01343,0 1.69057,-0.32645 2.00586,-0.95703 0.31529,-0.64184 0.5402,-1.40731 0.66406,-2.29687 0.24773,-2.6687 0.59646,-5.2138 1.04688,-7.63477 0.45041,-2.4097 1.02451,-4.96607 1.72265,-7.63476 0.69814,-2.67996 1.49716,-5.66408 2.38672,-8.97461 0,-0.12387 0.0223,-0.281234 0.0898,-0.472659 0.0563,-0.191426 0.0918,-0.348793 0.0918,-0.472657 0,-0.765701 -0.19137,-1.531174 -0.57422,-2.296875 -0.38285,-0.765701 -0.95891,-1.148437 -1.72461,-1.148437 -0.88956,0 -1.75612,0.753754 -2.57812,2.285156 -0.822,1.520142 -1.36211,2.667892 -1.6211,3.433592 -1.65526,3.44566 -3.08616,6.0135 -4.29101,7.73633 -1.20485,1.72283 -3.08408,3.66029 -5.62891,5.82227 -1.27241,1.14855 -3.20987,2.26276 -5.82226,3.34375 -2.60113,1.08099 -5.63006,1.62109 -9.06446,1.62109 h -23.66992 c -6.23821,0 -10.24626,-0.94512 -12.02539,-2.85938 -1.77913,-1.91425 -2.66797,-4.84209 -2.66797,-8.7832 V 18.511719 c 0,-3.693382 1.65432,-6.137402 4.96485,-7.353516 3.31053,-1.2161134 7.32053,-2.2627791 12.02734,-3.1523436 2.16198,-0.3828506 3.74875,-0.8894124 4.77344,-1.53125 1.02469,-0.6305774 1.53125,-1.3955918 1.53125,-2.2851563 0,-0.7657011 -0.51782,-1.3077582 -1.53125,-1.6230468 C 545.3366,2.2511176 544.00874,2.09375 542.35348,2.09375 c -3.4344,0 -6.36224,0.067543 -8.78321,0.1914063 -2.42096,0.1238634 -4.7747,0.2136881 -7.06054,0.28125 -2.28585,0.056302 -5.03358,0.091797 -8.20899,0.091797 -2.79256,0 -5.14629,-0.024235 -7.06055,-0.091797 -1.90299,-0.056302 -3.90604,-0.1573866 -6.01171,-0.28125 C 503.12284,2.1612928 500.35236,2.09375 496.91797,2.09375 Z" />
		<path d="m 604.98242,2.0839844 c -1.65526,0 -2.99438,0.1573675 -4.00781,0.4726562 -1.02469,0.3152887 -1.53125,0.8553927 -1.53125,1.6210938 0,1.779129 2.10459,3.0507051 6.30469,3.8164062 4.83067,0.8895645 8.17479,2.2869194 10.02148,4.2011724 1.84669,1.914252 2.77149,5.089745 2.77149,9.548828 v 86.287109 c 0,4.45908 -1.27353,7.70212 -3.81836,9.74023 -2.54483,2.03812 -6.23769,3.50302 -11.06836,4.39258 -4.2001,0.7657 -6.29493,1.90219 -6.29493,3.4336 0,0.7657 0.50657,1.3058 1.53125,1.62109 1.01343,0.31529 2.35451,0.47266 4.00977,0.47266 3.4344,0 6.39486,-0.0894 8.84961,-0.26953 2.47727,-0.19143 4.89855,-0.3488 7.25195,-0.47266 2.35341,-0.12386 5.12388,-0.19141 8.31055,-0.19141 2.92768,0 5.40524,0.0675 7.44336,0.19141 2.03812,0.12386 4.16499,0.28123 6.39453,0.47266 2.21828,0.19142 5.05584,0.28125 8.49023,0.28125 1.65527,0 2.98508,-0.15737 4.00977,-0.47266 1.02469,-0.31529 1.53125,-0.85539 1.53125,-1.62109 0,-0.88957 -0.51782,-1.59876 -1.53125,-2.10547 -1.02469,-0.50672 -2.61341,-0.957 -4.77539,-1.33985 -4.70681,-0.88956 -8.39967,-2.35446 -11.06836,-4.39258 -2.66869,-2.03811 -4.00977,-5.28115 -4.00977,-9.74023 V 21.744141 c 0,-4.459083 1.08217,-7.634576 3.24415,-9.548828 2.17324,-1.902993 5.60764,-3.3116079 10.31445,-4.2011724 2.16198,-0.3828505 3.74875,-0.8894123 4.77344,-1.53125 1.02468,-0.6305773 1.53125,-1.3955917 1.53125,-2.2851562 0,-0.7657011 -0.51783,-1.3058051 -1.53125,-1.6210938 -1.02469,-0.3152887 -2.35255,-0.4726562 -4.00782,-0.4726562 -3.43439,0 -6.17086,0.067543 -8.20898,0.1914062 -2.03812,0.1238634 -3.95329,0.2136882 -5.73242,0.28125 -1.77913,0.056302 -4.07463,0.089844 -6.86719,0.089844 -2.92768,0 -5.40524,-0.022282 -7.44336,-0.089844 -2.03812,-0.056302 -4.16694,-0.1573866 -6.39648,-0.28125 -2.21828,-0.1238634 -5.05584,-0.1914062 -8.49024,-0.1914062 z" />
		<path d="m 793.88477,1.4746094 c -2.54483,0 -5.88895,0.1913682 -10.02149,0.5742187 -4.14379,0.3828506 -8.05076,0.5742188 -11.74414,0.5742188 -1.91425,0 -3.75993,-0.022282 -5.53906,-0.089844 -1.79039,-0.056302 -3.50294,-0.089844 -5.15821,-0.089844 h -4.77343 c -1.65527,0 -2.99634,0.1573675 -4.00977,0.4726562 -1.02469,0.3152887 -1.53125,0.8553927 -1.53125,1.6210938 0,0.8895645 0.73147,1.6905326 2.19531,2.3886718 1.45258,0.6981393 2.8272,1.1819607 4.09961,1.4296876 3.05155,0.5179742 5.24792,1.2834471 6.58789,2.2968757 1.33998,1.024688 2.00391,2.228721 2.00391,3.625 0,1.272415 -0.45028,2.737311 -1.33984,4.392577 -0.88957,1.655265 -2.09555,3.433403 -3.62696,5.347657 l -20.42578,26.923828 c -1.02469,1.396279 -1.87998,2.161293 -2.57812,2.285156 -0.7094,0.135123 -1.75607,-0.821258 -3.15235,-2.859375 l -17.375,-24.435546 c -4.18883,-5.855362 -6.29492,-9.795869 -6.29492,-11.833985 0,-1.520142 0.8213,-2.667892 2.47656,-3.433593 1.65527,-0.7544418 4.06529,-1.5889521 7.25196,-2.4785166 2.16198,-0.6418377 3.7507,-1.2159423 4.77539,-1.7226563 1.02469,-0.5067139 1.53125,-1.2041855 1.53125,-2.09375 0,-0.7657011 -0.51782,-1.305805 -1.53125,-1.6210937 -1.02469,-0.3152887 -2.3545,-0.4726563 -4.00977,-0.4726563 -1.65526,0 -4.26791,0.067543 -7.82617,0.1914063 -3.55826,0.1238634 -7.25111,0.1914062 -11.06836,0.1914062 -4.70681,0 -9.6377,-0.1593207 -14.79492,-0.4746093 -5.14596,-0.3152887 -9.32459,-0.4726563 -12.5,-0.4726563 -1.65527,0 -2.99439,0.1573676 -4.00781,0.4726563 -1.02469,0.3152886 -1.53125,0.8573457 -1.53125,1.6230468 0,0.8895645 0.5401,1.6545789 1.62109,2.2851563 1.08099,0.6418376 2.63376,1.2834851 4.67188,1.9140625 2.16198,0.6305773 4.32434,1.4631346 6.48632,2.4765631 2.16198,1.013428 4.51572,2.703236 7.06055,5.056641 2.54483,2.353404 5.40513,5.753807 8.5918,10.21289 l 25.58398,35.886718 c 1.79039,2.544831 2.42078,4.673658 1.91406,6.396485 -0.50671,1.711567 -1.46505,3.466965 -2.86132,5.246094 l -23.85938,29.78516 c -2.67995,3.31053 -5.73162,6.23837 -9.16601,8.7832 -3.4344,2.54483 -6.77852,4.61542 -10.02149,6.20312 -3.25423,1.59897 -5.95716,2.71318 -8.11914,3.34375 -2.03812,0.64184 -3.59284,1.28544 -4.67383,1.91602 -1.08099,0.63058 -1.62109,1.39559 -1.62109,2.28516 0,0.7657 0.51782,1.3058 1.53125,1.62109 1.01343,0.31529 2.3545,0.47266 4.00976,0.47266 3.17541,0 6.90169,-0.19034 11.20313,-0.59571 4.2564,-0.38285 8.55885,-0.57422 12.88281,-0.57422 3.4344,0 6.71097,0.0675 9.83008,0.19141 3.11911,0.12386 5.50489,0.19141 7.16016,0.19141 1.65526,0 2.98507,-0.15737 4.00976,-0.47266 1.02469,-0.31529 1.53125,-0.85735 1.53125,-1.62305 0,-0.88956 -0.51782,-1.62103 -1.53125,-2.19531 -1.02469,-0.57427 -2.61341,-1.11438 -4.77539,-1.62109 -2.54483,-0.64184 -4.61542,-1.62096 -6.20312,-2.96094 -1.58771,-1.32872 -2.38868,-2.8947 -2.38868,-4.67383 0,-0.64184 0.15933,-1.33977 0.47461,-2.10547 0.31529,-0.75444 0.73157,-1.51945 1.23828,-2.28515 l 25.77344,-33.218753 c 0.64184,-0.889565 1.27418,-1.305843 1.91602,-1.238281 0.64184,0.06756 1.40731,0.799034 2.29687,2.195312 l 19.85157,28.826172 c 0.88956,1.14855 1.49721,2.23071 1.8125,3.24414 0.31528,1.01343 0.47265,2.03735 0.47265,3.05078 0,2.42097 -0.92284,4.35843 -2.76953,5.82227 -1.84669,1.46384 -3.71661,2.52176 -5.63086,3.15234 -1.28367,0.38285 -2.64553,0.90067 -4.10937,1.53125 -1.46384,0.63058 -2.19532,1.39559 -2.19532,2.28516 0,0.7657 0.50657,1.30776 1.53125,1.62304 1.01343,0.31529 2.35255,0.47266 4.00782,0.47266 2.2971,0 5.1574,-0.0223 8.59179,-0.0898 3.4344,-0.0563 7.12725,-0.0918 11.06836,-0.0918 3.05155,0 6.33008,0.0918 9.83203,0.2832 3.50196,0.19143 6.83482,0.3828 10.02149,0.57422 3.17541,0.19143 5.66228,0.28125 7.4414,0.28125 1.65527,0 2.98508,-0.15737 4.00977,-0.47265 1.02469,-0.31529 1.53125,-0.85735 1.53125,-1.62305 0,-0.88957 -0.51782,-1.62104 -1.53125,-2.19531 -1.02469,-0.57428 -2.61341,-1.11438 -4.77539,-1.6211 -3.55826,-1.02469 -7.12729,-2.9286 -10.68555,-5.73242 -3.56952,-2.79256 -6.81255,-6.29404 -9.74023,-10.49414 l -29.5918,-42.574219 c -0.64184,-1.407538 -0.76566,-2.51244 -0.38281,-3.345703 0.38285,-0.822003 1.39551,-2.250946 3.05078,-4.289062 l 21.95898,-25.966797 c 4.2001,-4.965797 8.48934,-9.637776 12.88086,-14.029297 4.39152,-4.391521 8.36603,-7.0381705 11.93555,-7.927735 2.16198,-0.6418377 3.7507,-1.2159423 4.77539,-1.7226563 1.02469,-0.5067139 1.53125,-1.2159042 1.53125,-2.1054687 0,-0.7657011 -0.51782,-1.3077582 -1.53125,-1.6230469 -1.02469,-0.3152887 -2.3545,-0.4726562 -4.00976,-0.4726562 z" />
	</g>
</svg>